<svg height="512" viewBox="0 0 74 74" width="512" xmlns="http://www.w3.org/2000/svg"><g id="line_icons" data-name="line icons"><path d="m65.231 66.388h-59.069a5.471 5.471 0 0 1 -5.462-5.466v-35.269a5.471 5.471 0 0 1 5.465-5.465h25.822l1.469-5.081a4.811 4.811 0 0 1 4.609-3.476h15.425a4.782 4.782 0 0 1 4.621 3.474l1.459 5.083h5.661a5.472 5.472 0 0 1 5.469 5.465v35.269a5.472 5.472 0 0 1 -5.469 5.466zm-59.069-44.2a3.469 3.469 0 0 0 -3.462 3.465v35.269a3.469 3.469 0 0 0 3.465 3.466h59.066a3.47 3.47 0 0 0 3.469-3.466v-35.269a3.47 3.47 0 0 0 -3.466-3.465h-6.417a1 1 0 0 1 -.961-.724l-1.666-5.8a2.8 2.8 0 0 0 -2.7-2.03h-15.425a2.805 2.805 0 0 0 -2.687 2.028l-1.678 5.804a1 1 0 0 1 -.96.722z"/><path d="m51.007 18.717h-10.458a1 1 0 0 1 0-2h10.458a1 1 0 0 1 0 2z"/><path d="m45.779 61.854a19.13 19.13 0 1 1 19.13-19.129 19.151 19.151 0 0 1 -19.13 19.129zm0-36.259a17.13 17.13 0 1 0 17.13 17.13 17.149 17.149 0 0 0 -17.13-17.125z"/><path d="m45.779 56.667a13.943 13.943 0 1 1 13.943-13.942 13.958 13.958 0 0 1 -13.943 13.942zm0-25.885a11.943 11.943 0 1 0 11.943 11.943 11.956 11.956 0 0 0 -11.943-11.943z"/><path d="m29.709 53.354h-28.009a1 1 0 0 1 -1-1v-17a1 1 0 0 1 1-1h27.511a1 1 0 0 1 0 2h-26.511v15h27.009a1 1 0 1 1 0 2z"/><path d="m69.7 53.354h-7.854a1 1 0 1 1 0-2h6.854v-15h-6.355a1 1 0 0 1 0-2h7.355a1 1 0 0 1 1 1v17a1 1 0 0 1 -1 1z"/><path d="m18.463 22.188h-7.787a1 1 0 0 1 -1-1v-2.782a3.074 3.074 0 0 1 3.071-3.07h3.646a3.073 3.073 0 0 1 3.07 3.07v2.782a1 1 0 0 1 -1 1zm-6.787-2h5.787v-1.782a1.071 1.071 0 0 0 -1.07-1.07h-3.646a1.071 1.071 0 0 0 -1.071 1.07z"/><path d="m8.742 13.6a1 1 0 0 1 -.806-.407l-1.227-1.67a1 1 0 0 1 1.609-1.188l1.228 1.665a1 1 0 0 1 -.8 1.594z"/><path d="m14.57 11.681a1 1 0 0 1 -1-1v-2.069a1 1 0 0 1 2 0v2.069a1 1 0 0 1 -1 1z"/><path d="m20.4 13.6a1 1 0 0 1 -.8-1.594l1.227-1.665a1 1 0 0 1 1.611 1.186l-1.238 1.661a1 1 0 0 1 -.8.412z"/></g></svg>