<?xml version="1.0" encoding="iso-8859-1"?>
<!-- Generator: Adobe Illustrator 17.1.0, SVG Export Plug-In . SVG Version: 6.00 Build 0)  -->
<!DOCTYPE svg PUBLIC "-//W3C//DTD SVG 1.1//EN" "http://www.w3.org/Graphics/SVG/1.1/DTD/svg11.dtd">
<svg version="1.1" xmlns="http://www.w3.org/2000/svg" xmlns:xlink="http://www.w3.org/1999/xlink" x="0px" y="0px"
	 viewBox="0 0 1024 1024" style="enable-background:new 0 0 1024 1024;" xml:space="preserve">
<g id="heart">
	<path id="heart_1_" style="fill:#F4625B;" d="M512,7.01C233.096,7.01,7.011,233.095,7.011,512
		c0,278.904,226.085,504.989,504.989,504.989c278.926,0,504.99-226.085,504.99-504.989C1016.99,233.095,790.926,7.01,512,7.01z
		 M799.843,434.876c-7.403,87.162-78.907,194.583-287.884,329.38C303.024,629.459,231.54,522.037,224.158,434.876v-30.257
		c7.901-91.04,73.08-138.571,129.529-143.569c9.27-0.912,17.918-1.306,26.047-1.306c65.159,0,96.452,64.267,132.225,103.544
		c35.815-39.278,67.087-103.544,132.205-103.544c8.171,0,16.901,0.394,26.108,1.306c56.429,4.998,121.525,52.529,129.571,143.569
		V434.876z"/>
</g>
<g id="Layer_1">
</g>
</svg>
