<?xml version="1.0" standalone="no"?>
<!DOCTYPE svg PUBLIC "-//W3C//DTD SVG 20010904//EN"
 "http://www.w3.org/TR/2001/REC-SVG-20010904/DTD/svg10.dtd">
<svg version="1.0" xmlns="http://www.w3.org/2000/svg"
 width="1280.000000pt" height="1169.000000pt" viewBox="0 0 1280.000000 1169.000000"
 preserveAspectRatio="xMidYMid meet">
<metadata>
Created by potrace 1.15, written by Peter Selinger 2001-2017
</metadata>
<g transform="translate(0.000000,1169.000000) scale(0.100000,-0.100000)"
fill="#000000" stroke="none">
<path d="M3150 11684 c-480 -41 -874 -150 -1284 -356 -952 -477 -1633 -1392
-1815 -2439 -38 -216 -45 -305 -45 -544 -1 -249 7 -332 55 -535 263 -1138
1400 -2802 3314 -4850 660 -706 1589 -1630 2340 -2325 149 -137 295 -276 325
-308 30 -33 124 -120 207 -194 l153 -135 107 88 c1299 1063 2625 2312 3594
3384 1205 1334 1990 2473 2397 3475 118 292 220 631 256 855 8 52 21 129 28
170 17 100 17 593 0 715 -62 445 -153 753 -328 1111 -244 500 -644 965 -1110
1290 -412 287 -895 482 -1394 563 -194 31 -261 36 -535 36 -276 0 -337 -4
-535 -36 -870 -141 -1641 -608 -2188 -1327 -80 -104 -211 -305 -254 -387 -18
-36 -35 -65 -38 -65 -3 0 -23 35 -45 77 -54 105 -222 356 -320 478 -110 139
-407 433 -545 539 -508 393 -1033 612 -1675 701 -105 15 -563 28 -665 19z"/>
</g>
</svg>
